<?xml version="1.0" encoding="utf-8"?>
<!-- Generator: Adobe Illustrator 21.1.0, SVG Export Plug-In . SVG Version: 6.00 Build 0)  -->
<svg version="1.1" id="Слой_1" xmlns="http://www.w3.org/2000/svg" xmlns:xlink="http://www.w3.org/1999/xlink" x="0px" y="0px"
	 viewBox="0 0 425.2 141.7" style="enable-background:new 0 0 425.2 141.7;" xml:space="preserve">
<style type="text/css">
	.st0{fill:#0F1011;}
</style>
<g id="Слой_2">
	<g id="Logo">
		<g id="TextGroup">
			<path id="Text" class="st0" d="M415.3,115.5c-0.9,0-1.8,0-2.6-0.1h-9.8V78.9h12.5c1.2,0.2,2.3-0.6,2.5-1.8c0,0,0-0.1,0-0.1
				c0-0.2,0-0.4,0-0.6c0-0.2,0-0.3,0-0.5c-0.1-1.3-1-2.1-2.5-2.1h-12.5V63.1c0-0.2,0-0.3,0-0.5c-0.1-1.3-1-2.1-2.5-2.1
				s-2.4,0.7-2.5,2.1c0,0.2,0,0.3,0,0.5v10.7h-6c-1.6,0-2.4,0.7-2.5,2.1c0,0.2,0,0.3,0,0.5c0,0.2,0,0.4,0,0.6c0.1,1.2,1.2,2.1,2.4,2
				c0,0,0.1,0,0.1,0h6v36.5H388V91.7c0-1.1,0-2.2-0.1-3.2c-0.4-4.6-1.8-8-4.1-10.4c-2.9-2.9-7.4-4.3-13.6-4.3h-2.8
				c-8.2,0-13.9,2.5-17.1,7.4v-4.8c0-0.2,0-0.3,0-0.5c-0.1-1.3-1-2.1-2.5-2.1c-1.5,0-2.4,0.7-2.5,2.1c0,0.2,0,0.3,0,0.5v39.1h-8.2
				V91.7c0-1.1,0-2.2-0.1-3.2c-0.4-4.6-1.8-8.1-4.1-10.4c-2.8-2.9-7.4-4.3-13.6-4.3h-5.8c-5.7,0-10,0.9-13,2.6
				c-3,1.7-4.9,4.8-5.1,8.2v0.1c0,0.1,0,0.2,0,0.3c0,0.2,0,0.3,0,0.5c0.1,0.4,0.2,0.8,0.5,1.1c0.6,0.5,1.3,0.8,2,0.7
				c0.6,0,1.2-0.2,1.7-0.5c0.5-0.5,0.8-1.1,1-1.8c0.4-2,1.7-3.8,3.6-4.6c3-1.1,6.1-1.5,9.2-1.3h5.8c4.6,0,7.9,0.9,9.7,2.7
				c1.6,1.5,2.6,4.1,2.9,7.7c0,0.5,0.1,1,0.1,1.5h-22.8c-5.1,0-8.9,1.2-11.3,3.6c-2.1,2.1-3.3,5.3-3.6,9.6c0,0.6,0,1.2,0,1.8v0.1
				c0,0.5,0,1.1,0,1.6c0,2.8,0.8,5.6,2.2,8h-16.6V78.9h12.5c1.2,0.2,2.4-0.7,2.5-1.9c0,0,0-0.1,0-0.1c0-0.2,0-0.4,0-0.6
				c0-0.2,0-0.3,0-0.5c-0.1-1.3-1-2.1-2.5-2.1h-12.5V63.1c0-0.2,0-0.3,0-0.5c-0.1-1.3-1-2.1-2.5-2.1c-1.6,0-2.4,0.7-2.5,2.1
				c0,0.2,0,0.3,0,0.5v10.7h-6c-1.5,0-2.4,0.7-2.5,2.1c0,0.2,0,0.3,0,0.5c0,0.2,0,0.4,0,0.6c0.1,1.2,1.2,2.1,2.4,2c0,0,0.1,0,0.1,0
				h6v36.5h-9.7c1.1-2.1,1.7-4.4,1.7-6.8c0-0.4,0-0.9,0-1.3c0-0.8,0-1.6-0.1-2.3c0-0.4-0.1-0.8-0.2-1.2c-0.3-2.4-1.3-4.7-3-6.5
				c-2.1-2.2-5.5-3.3-10.1-3.3h-16c-2.9,0-4.9-0.5-6-1.6c-1-1.1-1.5-2.5-1.5-4c0-0.3,0-0.5,0-0.8s0-0.7,0-1c0-0.4,0-0.7,0-1
				s0-0.6,0-0.9c0-1.5,0.6-3,1.5-4.2c1.1-1.1,3.1-1.6,6-1.6h15.6c1.8-0.1,3.6,0.2,5.2,1.1c1.2,0.9,1.9,2.4,2,3.9
				c0.1,0.7,0.4,1.4,0.9,1.9c0.5,0.4,1.2,0.6,1.8,0.6c0.7,0.1,1.4-0.2,1.9-0.7c0.3-0.3,0.5-0.7,0.5-1.1c0-0.2,0-0.3,0-0.5
				c0-0.1,0-0.2,0-0.3v-0.1c-0.8-6.6-5-9.9-12.5-9.9h-15.5c-4.4,0-7.6,1-9.7,3.1c-1.6,1.7-2.6,3.9-2.8,6.2c0,0.4-0.1,0.8-0.1,1.2
				c-0.1,0.7-0.1,1.5-0.1,2.3c0,0.5,0,1.1,0,1.6s0,0.9,0.1,1.3c0.2,2.5,1.2,4.8,3,6.7c2.1,2,5.3,3.1,9.7,3.1h16
				c3.1,0,5.3,0.6,6.4,1.7c1,1.3,1.6,2.8,1.7,4.5c0,0.3,0,0.6,0,0.9s0,0.7,0,1s0,0.8,0,1.1s0,0.6,0,0.9c0,1.6-0.6,3.1-1.7,4.4
				c-1.1,1.2-3.3,1.7-6.4,1.7h-35.7V76.3c0-0.2,0-0.3,0-0.5c-0.1-1.3-1-2.1-2.5-2.1c-0.7,0-1.4,0.2-1.9,0.6
				c-0.4,0.4-0.6,0.9-0.7,1.4c0,0.2,0,0.3,0,0.5v39.1h-8c0.8-1.5,1.3-3.1,1.5-4.8c0.1-0.6,0.1-1.3,0.2-2c0-0.4,0-0.9,0-1.3
				c0-0.8,0-1.6-0.1-2.3c0-0.4-0.1-0.8-0.2-1.2c-0.3-2.4-1.3-4.7-3-6.5c-2.1-2.2-5.5-3.3-10.1-3.3h-16c-2.9,0-4.9-0.5-6-1.6
				c-1-1.1-1.5-2.5-1.5-4c0-0.3,0-0.5,0-0.8c0-0.3,0-0.7,0-1s0-0.7,0-1s0-0.6,0-0.9c0-1.5,0.6-3,1.5-4.2c1.1-1.1,3.1-1.6,6-1.6h15.5
				c1.8-0.1,3.6,0.2,5.2,1.1c1.2,0.9,1.9,2.4,2,3.9c0.1,0.7,0.4,1.4,0.9,1.9c0.5,0.4,1.2,0.6,1.8,0.6c0.7,0.1,1.4-0.2,1.9-0.7
				c0.3-0.3,0.5-0.7,0.5-1.1c0-0.2,0-0.3,0-0.5c0-0.1,0-0.2,0-0.3v-0.1c-0.8-6.6-5-9.9-12.5-9.9h-15.5c-4.4,0-7.6,1-9.7,3.1
				c-1.6,1.7-2.6,3.9-2.9,6.2c0,0.4-0.1,0.8-0.1,1.2c0,0.7-0.1,1.5-0.1,2.3c0,0.5,0,1.1,0,1.6c0,0.5,0,0.9,0.1,1.3
				c0.2,2.5,1.2,4.8,3,6.7c2.1,2,5.3,3.1,9.7,3.1h16c3.1,0,5.2,0.6,6.4,1.7c1,1.3,1.6,2.8,1.7,4.5c0,0.3,0,0.6,0,0.9
				c0,0.3,0,0.7,0,1s0,0.8,0,1.1s0,0.6,0,0.9c0,1.6-0.6,3.1-1.7,4.4c-1.2,1.2-3.3,1.7-6.4,1.7h-34.5c1.1-2.1,1.7-4.4,1.7-6.8
				c0-0.4,0-0.9,0-1.3c0-0.8,0-1.6-0.1-2.3c-0.1-2.9-1.2-5.6-3.1-7.7c-2.2-2.2-5.5-3.3-10.1-3.3h-16c-2.9,0-4.9-0.5-6-1.6
				c-0.8-0.9-1.2-2-1.3-3.2l0,0c-0.1-0.5-0.2-1.1-0.2-1.7c0-0.3,0-0.7,0-1c0-0.4,0-0.7,0-1c0-0.5,0.1-1.1,0.2-1.6
				c0.1-1.3,0.5-2.5,1.3-3.4c1.1-1.1,3.1-1.6,6-1.6h15.5c1.8-0.1,3.6,0.2,5.2,1.1c1.2,0.9,1.9,2.4,2,3.9c0.1,0.7,0.4,1.4,0.9,1.9
				c0.5,0.4,1.2,0.6,1.8,0.6c0.7,0.1,1.4-0.2,1.9-0.7c0.4-0.5,0.6-1.1,0.6-1.7c0-0.1,0-0.2,0-0.2v-0.1c-0.8-6.6-5-9.9-12.5-9.9
				h-15.5c-4.4,0-7.6,1-9.7,3.1c-1.6,1.7-2.6,3.9-2.9,6.2c0,0.4-0.1,0.8-0.1,1.2c-0.1,0.7-0.1,1.5-0.1,2.3c0,0.5,0,1.1,0,1.6
				c0,0.5,0.1,0.9,0.1,1.3c0.2,2.5,1.2,4.8,3,6.7c2.1,2,5.3,3.1,9.7,3.1h16c3.1,0,5.2,0.6,6.4,1.7c0.9,1,1.4,2.3,1.5,3.6
				c0.1,0.6,0.2,1.2,0.2,1.8c0,0.3,0,0.7,0,1s0,0.8,0,1.1c0,0.6-0.1,1.2-0.2,1.8c-0.1,1.3-0.7,2.5-1.5,3.5c-1.2,1.2-3.3,1.7-6.4,1.7
				h-29.8l-24-56.7c-0.4-1.2-1.6-2-2.9-2h-0.2c-1.3-0.1-2.5,0.7-3,2l-24,56.7H50.1V76.3c0-0.2,0-0.3,0-0.5c-0.1-1.3-1-2.1-2.5-2.1
				c-1.5,0-2.4,0.7-2.5,2.1c0,0.2,0,0.3,0,0.5V105c0,0.1,0,0.2,0,0.4c0,0.1,0,0.2,0,0.3c-0.2,3.1-2,5.9-4.8,7.4
				c-2.8,1.4-5.9,2.3-9,2.4c-1,0-2.1,0.1-3.2,0.1h-2.9c-0.9,0-1.8,0-2.7-0.1c-3.4-0.3-5.8-1.2-7.3-2.7c-1.5-1.7-2.4-3.9-2.6-6.2
				c0-0.4-0.1-0.8-0.1-1.3c0-0.8-0.1-1.6-0.1-2.5V76.3c0-0.2,0-0.3,0-0.5c-0.1-1.3-1-2.1-2.5-2.1s-2.4,0.7-2.6,2.1
				c0,0.2,0,0.3,0,0.5v26.4c0,0.3,0,0.7,0,1v1c0,0.3,0,0.6,0.1,0.9c0.1,0.3,0,0.6,0.1,0.9l0.1,0.9c0.1,0.8,0.3,1.6,0.5,2.3
				c0.5,2,1.4,3.9,2.7,5.5c0.3,0.3,0.5,0.6,0.8,0.9c2.4,2.5,6.1,3.9,11,4.2c0.8,0,1.7,0.1,2.7,0.1h2.8c0.9,0,1.7,0,2.5-0.1
				c5.7-0.4,10-2.1,12.9-5.2c0.6-0.6,1.2-1.3,1.7-2.1v4.8c0,0.2,0,0.4,0,0.5c0,0.4,0.2,0.7,0.3,1.1c0.3,0.5,0.8,0.8,1.3,0.9h18.9
				c0.7-0.3,1.2-0.8,1.5-1.5l1.6-3.7l5.1-12h32.5l5.1,12l1.6,3.7c0.2,0.7,0.7,1.2,1.3,1.5H318c2.4-0.2,4.7-0.8,6.8-1.7
				c1.9-0.8,3.6-2,5-3.5h-0.1c0.6-0.7,1.2-1.4,1.7-2.2v5c-0.2,1,0.4,2,1.3,2.4h15.9c0.9-0.4,1.5-1.4,1.3-2.4V89.5
				c0.1-0.1,0.1-0.3,0.1-0.5c0,0,0-0.1,0-0.1v-0.1c0.2-3.1,2-5.9,4.8-7.4c2.9-1.7,7-2.5,12.2-2.5h2.8c4.8,0,8.1,0.9,9.9,2.8
				c1.5,1.7,2.4,3.9,2.6,6.2c0,0.4,0.1,0.8,0.1,1.3c0,0.8,0.1,1.6,0.1,2.4v26.5c-0.2,1,0.4,2,1.3,2.4h32c0.8-0.1,1.5-0.7,1.7-1.5
				l0.1-0.4c0-0.2,0-0.3,0-0.5c0-0.2,0-0.3,0-0.5C417.8,116.2,417,115.5,415.3,115.5z M75.8,98.2L90,64.8l14,33.4H75.8z
				 M331.4,105.5c-0.9,6-5.5,9.2-13.9,9.8c-0.9,0.1-1.9,0.1-2.9,0.1h-5.6c-0.7,0-1.5,0-2.2-0.1c-2,0-3.8-0.8-5.3-2
				c-1.2-1.5-2-3.3-2-5.2c0-0.3,0-0.7-0.1-1.1c0-0.4,0-0.9,0-1.3c0-0.7,0-1.3,0-1.9c0-0.6,0.1-1.2,0.2-1.9c0.2-1.5,0.8-2.9,1.8-4
				c1.3-1.4,4-2.1,7.7-2.1h22.7v9L331.4,105.5z"/>
		</g>
		<path class="st0" d="M237.9,45L215,52L192,45v11.8c0,5.4,10.3,9.9,22.9,9.9c12.7,0,22.9-4.4,22.9-9.9c0,0,0-0.1,0-0.1L237.9,45z
			 M219.4,61.2c0,0.1,0,0.3,0,0.4c0.1,1.6-1.1,3-2.7,3.1c-0.2,0-0.3,0-0.5,0h-2.3c-0.9,0.1-1.9-0.3-2.6-0.9
			c-0.5-0.6-0.9-1.4-0.9-2.2c0-0.1,0-0.3,0-0.4v-2.2c0-0.1,0-0.2,0-0.3c0-0.8,0.3-1.6,0.9-2.3c0.7-0.6,1.6-1,2.6-0.9h2.3
			c1.6-0.2,3.1,0.9,3.3,2.5c0,0.2,0,0.4,0,0.6c0,0.1,0,0.2,0,0.3V61.2z"/>
		<path class="st0" d="M194.2,40.4l0.4-0.9l-5.3,1.2V42l-1,16.3c-2.3,1.3-5,1.3-7.3,0c-0.9-6,5-18.2,5-18.2l0.4-1.1l2.6-0.6
			l-0.4-0.5l-3,0.3l-0.8,1.5l-8.2-2.9L215,22.1l38.4,14.8l-15.5,5.5L215,49.5L192,42.4l-1.9-0.7L194.2,40.4z"/>
	</g>
</g>
</svg>
